<?xml version="1.0" standalone="no"?><!DOCTYPE svg PUBLIC "-//W3C//DTD SVG 1.1//EN" "http://www.w3.org/Graphics/SVG/1.1/DTD/svg11.dtd"><svg t="1581838679387" class="icon" viewBox="0 0 1024 1024" version="1.1" xmlns="http://www.w3.org/2000/svg" p-id="5125" xmlns:xlink="http://www.w3.org/1999/xlink" width="16" height="16"><defs><style type="text/css">@font-face { font-family: element-icons; src: url("chrome-extension://moombeodfomdpjnpocobemoiaemednkg/fonts/element-icons.woff") format("woff"), url("chrome-extension://moombeodfomdpjnpocobemoiaemednkg/fonts/element-icons.ttf ") format("truetype"); }
</style></defs><path d="M512 512m-512 0a512 512 0 1 0 1024 0 512 512 0 1 0-1024 0Z" fill="#28A5C6" p-id="5126"></path><path d="M556.8 494.4c32.8 114.4-16 236.8-108.8 273.6-92.8 36-212-21.6-264.8-128l-37.6-75.2c-52.8-106.4-5.6-228.8 104.8-272l22.4-8.8c110.4-43.2 228 15.2 260.8 129.6l23.2 80.8z" fill="#FF4848" p-id="5127"></path><path d="M447.2 700.8c-92.8 36-212-21.6-264.8-128l-37.6-75.2c-9.6-18.4-15.2-37.6-18.4-56.8-7.2 40-1.6 83.2 18.4 124l37.6 75.2c52.8 106.4 172 164 264.8 128 82.4-32 130.4-132 116.8-234.4-9.6 76-52.8 142.4-116.8 167.2z" fill="#EA291C" p-id="5128"></path><path d="M532.8 412.8c-16.8-57.6-54.4-100.8-102.4-124-34.4 35.2-56 84-56 139.2l-0.8 126.4c-0.8 81.6 40 156.8 100 199.2 75.2-47.2 111.2-156.8 81.6-259.2l-22.4-81.6z" fill="#EA291C" p-id="5129"></path><path d="M387.2 784c-85.6 0-172-56.8-214.4-141.6l-37.6-75.2c-27.2-52.8-30.4-111.2-9.6-164.8 20.8-52.8 63.2-94.4 119.2-116l22.4-8.8c25.6-9.6 51.2-14.4 77.6-14.4 91.2 0 169.6 59.2 195.2 148l23.2 80.8c34.4 117.6-16.8 243.2-114.4 280-18.4 8-40 12-61.6 12z m-42.4-504c-24 0-48.8 4.8-72 13.6l-22.4 8.8C199.2 321.6 160 360 140.8 408.8c-19.2 48.8-16 102.4 8.8 152l37.6 75.2c40 79.2 120.8 132.8 200 132.8 20 0 39.2-3.2 56.8-10.4 89.6-34.4 136.8-152 104.8-261.6l-24-80.8c-23.2-81.6-96-136-180-136z" fill="#074370" p-id="5130"></path><path d="M320 696c-4 0-8-3.2-8-8-2.4-42.4 22.4-81.6 62.4-97.6 40-15.2 84.8-4 111.2 29.6 3.2 3.2 2.4 8.8-0.8 11.2-3.2 3.2-8.8 2.4-11.2-0.8-22.4-28-60-37.6-92.8-24.8s-53.6 45.6-52 81.6c0 4.8-4 8.8-8.8 8.8 0.8 0 0 0 0 0zM200 528c-3.2 0-5.6-1.6-7.2-4-2.4-4-0.8-8.8 3.2-10.4l64-32c4-2.4 8.8-0.8 11.2 3.2 2.4 4 0.8 8.8-3.2 10.4l-64 32c-0.8 0.8-2.4 0.8-4 0.8zM392 448c-3.2 0-6.4-2.4-7.2-6.4-0.8-4 1.6-8.8 5.6-9.6l65.6-17.6c4-0.8 8 1.6 9.6 5.6 0.8 4-1.6 8.8-5.6 9.6L393.6 448H392z" fill="#074370" p-id="5131"></path><path d="M856.8 598.4c-22.4 116.8-128 204-235.2 193.6-107.2-10.4-194.4-116-193.6-235.2l0.8-126.4C428.8 312 525.6 224 644 236l60.8 5.6c118.4 11.2 196.8 116 174.4 232.8l-22.4 124z" fill="#FBD000" p-id="5132"></path><path d="M880 416l-23.2 124c-22.4 116.8-128 204-235.2 193.6-104-10.4-188.8-108.8-193.6-223.2v47.2c-0.8 118.4 86.4 224 193.6 234.4 107.2 10.4 212.8-76.8 235.2-193.6l23.2-124c4.8-23.2 4.8-46.4 1.6-68-0.8 3.2-0.8 6.4-1.6 9.6z" fill="#F4B10B" p-id="5133"></path><path d="M640.8 800c-6.4 0-12 0-18.4-0.8-112.8-11.2-207.2-120-206.4-243.2V428.8C416.8 313.6 511.2 224 625.6 224c7.2 0 14.4 0 21.6 0.8l61.6 5.6c60 5.6 112 34.4 147.2 80.8 34.4 46.4 48 104 36.8 162.4l-24 124.8C846.4 711.2 746.4 800 640.8 800z m-15.2-560C520 240 432.8 323.2 432 428.8v126.4c-0.8 115.2 87.2 217.6 192 227.2 5.6 0.8 11.2 0.8 16.8 0.8 98.4 0 192-82.4 212-188l24-124.8c10.4-54.4-1.6-108-33.6-150.4-32-42.4-80-68.8-135.2-74.4l-61.6-5.6h-20.8z" fill="#074370" p-id="5134"></path><path d="M635.2 704c-3.2 0-6.4 0-9.6-0.8-44-4-79.2-35.2-88.8-78.4-0.8-4 1.6-8 5.6-9.6 4-0.8 8 1.6 9.6 5.6 8 36 38.4 62.4 75.2 66.4 36.8 3.2 72-16.8 86.4-50.4 1.6-4 6.4-5.6 10.4-4 4 1.6 5.6 6.4 4 10.4-16.8 37.6-53.6 60.8-92.8 60.8zM505.6 442.4c-4 0-8-3.2-8-8s3.2-8 8-8l75.2-1.6c4 0 8 3.2 8 8s-3.2 8-8 8l-75.2 1.6zM800 472h-1.6l-72-16c-4-0.8-7.2-4.8-5.6-9.6 0.8-4 4.8-7.2 9.6-6.4l72 16c4 0.8 7.2 4.8 5.6 9.6-0.8 4-4 6.4-8 6.4z" fill="#074370" p-id="5135"></path><path d="M168 432c-0.8 0-2.4 0-3.2-0.8-4-1.6-6.4-6.4-4.8-10.4 0.8-0.8 50.4-114.4 192-116.8 4 0 8 3.2 8 8 0 4-3.2 8-8 8-130.4 2.4-174.4 103.2-176 107.2-1.6 3.2-4.8 4.8-8 4.8z" fill="#FFFFFF" p-id="5136"></path><path d="M838.4 464h-0.8c-4.8-0.8-8-4.8-7.2-8.8 2.4-22.4 0.8-44-4.8-63.2-1.6-4 1.6-8.8 5.6-9.6 4.8-1.6 9.6 1.6 10.4 5.6 6.4 21.6 8.8 44.8 5.6 69.6-0.8 3.2-4.8 6.4-8.8 6.4zM816 360c-2.4 0-4.8-1.6-6.4-4-17.6-28-45.6-48-83.2-58.4-13.6-4-26.4-7.2-39.2-8.8-4.8-0.8-7.2-4.8-7.2-9.6 0.8-4.8 4.8-8 8.8-7.2 13.6 2.4 27.2 5.6 41.6 9.6 40.8 12 72 33.6 92 65.6 2.4 4 1.6 8.8-2.4 12-0.8 0-2.4 0.8-4 0.8z" fill="#FFFFFF" p-id="5137"></path><path d="M384 176c-17.6 0-32-14.4-32-32s14.4-32 32-32 32 14.4 32 32-14.4 32-32 32z m0-48.8c-9.6 0-16.8 8-16.8 16.8 0 9.6 8 16.8 16.8 16.8 9.6 0 16.8-8 16.8-16.8 0-9.6-7.2-16.8-16.8-16.8zM688 896c-17.6 0-32-14.4-32-32s14.4-32 32-32 32 14.4 32 32-14.4 32-32 32z m0-48.8c-9.6 0-16.8 8-16.8 16.8 0 9.6 8 16.8 16.8 16.8 9.6 0 16.8-8 16.8-16.8 0-9.6-7.2-16.8-16.8-16.8zM226.4 788c0-3.2-3.2-6.4-8-7.2l-15.2-2.4c-4-0.8-8.8-4.8-8.8-8.8l-2.4-15.2c-0.8-4-4-8-7.2-8s-6.4 3.2-7.2 8l-2.4 15.2c-0.8 4-4.8 8.8-8.8 8.8l-15.2 2.4c-4 0.8-8 4-8 7.2s3.2 6.4 8 7.2l15.2 2.4c4 0.8 8.8 4.8 8.8 8.8l2.4 15.2c0.8 4 4 8 7.2 8s6.4-3.2 6.4-8l2.4-16.8c0.8-4 4.8-8 8.8-8.8l14.4-0.8c6.4-1.6 9.6-4 9.6-7.2zM490.4 892c0-3.2-3.2-6.4-8-7.2l-15.2-2.4c-4-0.8-8.8-4.8-8.8-8.8l-2.4-15.2c-0.8-4-4-8-7.2-8s-6.4 3.2-7.2 8l-2.4 15.2c-0.8 4-4.8 8.8-8.8 8.8l-15.2 2.4c-4 0.8-8 4-8 7.2s3.2 6.4 8 7.2l15.2 2.4c4 0.8 8.8 4.8 8.8 8.8l2.4 15.2c0.8 4 4 8 7.2 8s6.4-3.2 6.4-8l2.4-16.8c0.8-4 4.8-8 8.8-8.8l14.4-0.8c6.4-1.6 9.6-4 9.6-7.2zM694.4 116c0-3.2-3.2-6.4-8-7.2l-14.4-1.6c-4-0.8-8.8-4.8-8.8-8.8l-2.4-15.2c-0.8-4-4-8-7.2-8s-6.4 3.2-7.2 8l-2.4 15.2c-0.8 4-4.8 8.8-8.8 8.8l-15.2 2.4c-4 0.8-8 4-8 7.2s3.2 6.4 8 7.2l15.2 2.4c4 0.8 8.8 4.8 8.8 8.8l2.4 15.2c0.8 4 4 8 7.2 8s6.4-3.2 6.4-8l2.4-16.8c0.8-4 4.8-8 8.8-8.8l14.4-0.8c5.6-2.4 8.8-4.8 8.8-8z" fill="#FFFFFF" p-id="5138"></path></svg>